<?xml version="1.0"?><!DOCTYPE svg PUBLIC "-//W3C//DTD SVG 1.1//EN" "http://www.w3.org/Graphics/SVG/1.1/DTD/svg11.dtd"><svg class="qc-circuit" width="272" height="256" version="1.1" xmlns="http://www.w3.org/2000/svg"><text class="qc-wire-init" x="0" y="54" dominant-baseline="middle" text-anchor="start">|0&#x27E9;</text><line class="qc-wire" x1="20" x2="272" y1="54" y2="54" stroke="black" stroke-width="1" /><text class="qc-wire-label" x="20" y="38" dominant-baseline="hanging" text-anchor="start" font-size="75%">q0</text><text class="qc-wire-init" x="0" y="128" dominant-baseline="middle" text-anchor="start">|0&#x27E9;</text><line class="qc-wire" x1="20" x2="272" y1="128" y2="128" stroke="black" stroke-width="1" /><text class="qc-wire-label" x="20" y="112" dominant-baseline="hanging" text-anchor="start" font-size="75%">q1</text><text class="qc-wire-init" x="0" y="202" dominant-baseline="middle" text-anchor="start">0</text><line class="qc-wire-c" x1="20" x2="272" y1="202" y2="202" stroke="silver" stroke-width="1" /><text class="qc-wire-label" x="20" y="186" dominant-baseline="hanging" text-anchor="start" font-size="75%">c</text><g class="qc-gate-group" data-id="VqdOUecYfuRSjmYKKp" data-gate="bell"><text class="qc-blackbox-label" x="88" y="20" dominant-baseline="hanging" text-anchor="middle" font-size="75%">bell</text><rect class="qc-gate-blackbox" x="66" y="32" width="44" height="118" stroke="black" fill="transparent" stroke-width="1" /><rect class="qc-gate-box" x="68" y="34" width="40" height="40" stroke="black" fill="white" stroke-width="1" /><text class="qc-gate-label" x="88" y="54" dominant-baseline="middle" text-anchor="middle" fill="black">a</text><rect class="qc-gate-box" x="68" y="108" width="40" height="40" stroke="black" fill="white" stroke-width="1" /><text class="qc-gate-label" x="88" y="128" dominant-baseline="middle" text-anchor="middle" fill="black">b</text><text class="qc-gate-params" x="88" y="154" dominant-baseline="hanging" text-anchor="middle" font-size="75%"></text></g><g class="qc-gate-group" data-id="hnQtpGrXmSTuB3vqz9" data-gate="measure"><rect class="qc-gate-box" x="136" y="34" width="40" height="40" stroke="black" fill="white" stroke-width="1" /><path class="gc-gate-gauge-arc" d="M 171.06131137016416 53.30434782608695 A 17.39130434782609 17.39130434782609 0 0 0 140.93868862983584 53.30434782608695" stroke="black" fill="none" stroke-width="1" /><line class="qc-gate-gauge-scale" x1="156" x2="168" y1="62" y2="42" stroke="black" stroke-width="1" /><line class="qc-gate-link-c" x1="156" x2="156" y1="74" y2="202" stroke="silver" stroke-width="1" /><line class="qc-gate-link-c" x2="156" x1="151" y1="192" y2="202" stroke="silver" stroke-width="1" /><line class="qc-gate-link-c" x2="156" x1="161" y1="192" y2="202" stroke="silver" stroke-width="1" /><text class="qc-wire-label" x="156" y="210" dominant-baseline="hanging" text-anchor="middle" font-size="75%">0</text></g><g class="qc-gate-group" data-id="W64WAQCBP3GM6bSKyC" data-gate="measure"><rect class="qc-gate-box" x="204" y="108" width="40" height="40" stroke="black" fill="white" stroke-width="1" /><path class="gc-gate-gauge-arc" d="M 239.06131137016416 127.30434782608695 A 17.39130434782609 17.39130434782609 0 0 0 208.93868862983584 127.30434782608695" stroke="black" fill="none" stroke-width="1" /><line class="qc-gate-gauge-scale" x1="224" x2="236" y1="136" y2="116" stroke="black" stroke-width="1" /><line class="qc-gate-link-c" x1="224" x2="224" y1="148" y2="202" stroke="silver" stroke-width="1" /><line class="qc-gate-link-c" x2="224" x1="219" y1="192" y2="202" stroke="silver" stroke-width="1" /><line class="qc-gate-link-c" x2="224" x1="229" y1="192" y2="202" stroke="silver" stroke-width="1" /><text class="qc-wire-label" x="224" y="210" dominant-baseline="hanging" text-anchor="middle" font-size="75%">1</text></g></svg>