<?xml version="1.0"?><!DOCTYPE svg PUBLIC "-//W3C//DTD SVG 1.1//EN" "http://www.w3.org/Graphics/SVG/1.1/DTD/svg11.dtd"><svg class="qc-circuit" width="1088" height="330" version="1.1" xmlns="http://www.w3.org/2000/svg"><text class="qc-wire-init" x="0" y="54" dominant-baseline="middle" text-anchor="start">|0&#x27E9;</text><line class="qc-wire" x1="20" x2="952" y1="54" y2="54" stroke="black" stroke-width="1" /><text class="qc-wire-label" x="20" y="38" dominant-baseline="hanging" text-anchor="start" font-size="75%">q0</text><text class="qc-wire-init" x="0" y="128" dominant-baseline="middle" text-anchor="start">|0&#x27E9;</text><line class="qc-wire" x1="20" x2="952" y1="128" y2="128" stroke="black" stroke-width="1" /><text class="qc-wire-label" x="20" y="112" dominant-baseline="hanging" text-anchor="start" font-size="75%">q1</text><text class="qc-wire-init" x="0" y="202" dominant-baseline="middle" text-anchor="start">0</text><line class="qc-wire-c" x1="20" x2="952" y1="202" y2="202" stroke="silver" stroke-width="1" /><text class="qc-wire-label" x="20" y="186" dominant-baseline="hanging" text-anchor="start" font-size="75%">c</text><g class="qc-gate-group" data-id="z4B7WQ7XOHFBr4Hct7" data-gate="ry"><rect class="qc-gate-box" x="68" y="34" width="40" height="40" stroke="black" fill="white" stroke-width="1" /><text class="qc-gate-label" x="88" y="54" dominant-baseline="middle" text-anchor="middle" fill="black">RY</text><text class="qc-gate-params" x="88" y="80" dominant-baseline="hanging" text-anchor="middle" font-size="75%">var0</text></g><g class="qc-gate-group" data-id="JGKgWcSxGU3Qf3s6j2" data-gate="ry"><rect class="qc-gate-box" x="68" y="108" width="40" height="40" stroke="black" fill="white" stroke-width="1" /><text class="qc-gate-label" x="88" y="128" dominant-baseline="middle" text-anchor="middle" fill="black">RY</text><text class="qc-gate-params" x="88" y="154" dominant-baseline="hanging" text-anchor="middle" font-size="75%">var2</text></g><g class="qc-gate-group" data-id="xxRHOVGwOFlZ3IvIOo" data-gate="rz"><rect class="qc-gate-box" x="136" y="34" width="40" height="40" stroke="black" fill="white" stroke-width="1" /><text class="qc-gate-label" x="156" y="54" dominant-baseline="middle" text-anchor="middle" fill="black">RZ</text><text class="qc-gate-params" x="156" y="80" dominant-baseline="hanging" text-anchor="middle" font-size="75%">var1</text></g><g class="qc-gate-group" data-id="Ko2cXDs8DBdqKtfmjC" data-gate="rz"><rect class="qc-gate-box" x="136" y="108" width="40" height="40" stroke="black" fill="white" stroke-width="1" /><text class="qc-gate-label" x="156" y="128" dominant-baseline="middle" text-anchor="middle" fill="black">RZ</text><text class="qc-gate-params" x="156" y="154" dominant-baseline="hanging" text-anchor="middle" font-size="75%">var3</text></g><g class="qc-gate-group" data-id="ZaHCRn23IUN4c07SS7" data-gate="cx"><line class="qc-gate-link" x1="224" x2="224" y1="54" y2="128" stroke="black" stroke-width="1" /><circle class="qc-gate-dot" cx="224" cy="54" r="5" stroke="black" fill="black" stroke-width="1" /><ellipse class="qc-gate-not" cx="224" cy="128" rx="16" ry="16" stroke="black" fill="white" stroke-width="1" /><line class="qc-gate-not-line" x1="224" x2="224" y1="112" y2="144" stroke="black" stroke-width="1" /><line class="qc-gate-not-line" x1="208" x2="240" y1="128" y2="128" stroke="black" stroke-width="1" /></g><g class="qc-gate-group" data-id="lNh41gWkQkyA4U83tz" data-gate="ry"><rect class="qc-gate-box" x="272" y="34" width="40" height="40" stroke="black" fill="white" stroke-width="1" /><text class="qc-gate-label" x="292" y="54" dominant-baseline="middle" text-anchor="middle" fill="black">RY</text><text class="qc-gate-params" x="292" y="80" dominant-baseline="hanging" text-anchor="middle" font-size="75%">var4</text></g><g class="qc-gate-group" data-id="TYZV4vNPojH26bvdim" data-gate="ry"><rect class="qc-gate-box" x="272" y="108" width="40" height="40" stroke="black" fill="white" stroke-width="1" /><text class="qc-gate-label" x="292" y="128" dominant-baseline="middle" text-anchor="middle" fill="black">RY</text><text class="qc-gate-params" x="292" y="154" dominant-baseline="hanging" text-anchor="middle" font-size="75%">var6</text></g><g class="qc-gate-group" data-id="x9igUkkRHkjPlXtXKJ" data-gate="rz"><rect class="qc-gate-box" x="340" y="34" width="40" height="40" stroke="black" fill="white" stroke-width="1" /><text class="qc-gate-label" x="360" y="54" dominant-baseline="middle" text-anchor="middle" fill="black">RZ</text><text class="qc-gate-params" x="360" y="80" dominant-baseline="hanging" text-anchor="middle" font-size="75%">var5</text></g><g class="qc-gate-group" data-id="kB5RQ1X4194alnxit3" data-gate="rz"><rect class="qc-gate-box" x="340" y="108" width="40" height="40" stroke="black" fill="white" stroke-width="1" /><text class="qc-gate-label" x="360" y="128" dominant-baseline="middle" text-anchor="middle" fill="black">RZ</text><text class="qc-gate-params" x="360" y="154" dominant-baseline="hanging" text-anchor="middle" font-size="75%">var7</text></g><g class="qc-gate-group" data-id="Ddn23gBQEEiy6Fb3XM" data-gate="cx"><line class="qc-gate-link" x1="428" x2="428" y1="54" y2="128" stroke="black" stroke-width="1" /><circle class="qc-gate-dot" cx="428" cy="54" r="5" stroke="black" fill="black" stroke-width="1" /><ellipse class="qc-gate-not" cx="428" cy="128" rx="16" ry="16" stroke="black" fill="white" stroke-width="1" /><line class="qc-gate-not-line" x1="428" x2="428" y1="112" y2="144" stroke="black" stroke-width="1" /><line class="qc-gate-not-line" x1="412" x2="444" y1="128" y2="128" stroke="black" stroke-width="1" /></g><g class="qc-gate-group" data-id="xBGkTcEf9MxA8RTITy" data-gate="ry"><rect class="qc-gate-box" x="476" y="34" width="40" height="40" stroke="black" fill="white" stroke-width="1" /><text class="qc-gate-label" x="496" y="54" dominant-baseline="middle" text-anchor="middle" fill="black">RY</text><text class="qc-gate-params" x="496" y="80" dominant-baseline="hanging" text-anchor="middle" font-size="75%">var8</text></g><g class="qc-gate-group" data-id="tPJpU3dupho2NBj40J" data-gate="ry"><rect class="qc-gate-box" x="476" y="108" width="40" height="40" stroke="black" fill="white" stroke-width="1" /><text class="qc-gate-label" x="496" y="128" dominant-baseline="middle" text-anchor="middle" fill="black">RY</text><text class="qc-gate-params" x="496" y="154" dominant-baseline="hanging" text-anchor="middle" font-size="75%">var10</text></g><g class="qc-gate-group" data-id="y6vY9ktBrYcK1UuBRt" data-gate="rz"><rect class="qc-gate-box" x="544" y="34" width="40" height="40" stroke="black" fill="white" stroke-width="1" /><text class="qc-gate-label" x="564" y="54" dominant-baseline="middle" text-anchor="middle" fill="black">RZ</text><text class="qc-gate-params" x="564" y="80" dominant-baseline="hanging" text-anchor="middle" font-size="75%">var9</text></g><g class="qc-gate-group" data-id="tkxmteEd3PxWW9EaDK" data-gate="rz"><rect class="qc-gate-box" x="544" y="108" width="40" height="40" stroke="black" fill="white" stroke-width="1" /><text class="qc-gate-label" x="564" y="128" dominant-baseline="middle" text-anchor="middle" fill="black">RZ</text><text class="qc-gate-params" x="564" y="154" dominant-baseline="hanging" text-anchor="middle" font-size="75%">var11</text></g><g class="qc-gate-group" data-id="oepFgNqCmYBCpUrAel" data-gate="cx"><line class="qc-gate-link" x1="632" x2="632" y1="54" y2="128" stroke="black" stroke-width="1" /><circle class="qc-gate-dot" cx="632" cy="54" r="5" stroke="black" fill="black" stroke-width="1" /><ellipse class="qc-gate-not" cx="632" cy="128" rx="16" ry="16" stroke="black" fill="white" stroke-width="1" /><line class="qc-gate-not-line" x1="632" x2="632" y1="112" y2="144" stroke="black" stroke-width="1" /><line class="qc-gate-not-line" x1="616" x2="648" y1="128" y2="128" stroke="black" stroke-width="1" /></g><g class="qc-gate-group" data-id="d174PtszaRKEF8dimU" data-gate="ry"><rect class="qc-gate-box" x="680" y="34" width="40" height="40" stroke="black" fill="white" stroke-width="1" /><text class="qc-gate-label" x="700" y="54" dominant-baseline="middle" text-anchor="middle" fill="black">RY</text><text class="qc-gate-params" x="700" y="80" dominant-baseline="hanging" text-anchor="middle" font-size="75%">var12</text></g><g class="qc-gate-group" data-id="g1pVt5ZGDGMZoEPM5T" data-gate="ry"><rect class="qc-gate-box" x="680" y="108" width="40" height="40" stroke="black" fill="white" stroke-width="1" /><text class="qc-gate-label" x="700" y="128" dominant-baseline="middle" text-anchor="middle" fill="black">RY</text><text class="qc-gate-params" x="700" y="154" dominant-baseline="hanging" text-anchor="middle" font-size="75%">var14</text></g><g class="qc-gate-group" data-id="io9J4MeodMFwLGpyOv" data-gate="rz"><rect class="qc-gate-box" x="748" y="34" width="40" height="40" stroke="black" fill="white" stroke-width="1" /><text class="qc-gate-label" x="768" y="54" dominant-baseline="middle" text-anchor="middle" fill="black">RZ</text><text class="qc-gate-params" x="768" y="80" dominant-baseline="hanging" text-anchor="middle" font-size="75%">var13</text></g><g class="qc-gate-group" data-id="pwc7XbO3VqIzFmEGU3" data-gate="rz"><rect class="qc-gate-box" x="748" y="108" width="40" height="40" stroke="black" fill="white" stroke-width="1" /><text class="qc-gate-label" x="768" y="128" dominant-baseline="middle" text-anchor="middle" fill="black">RZ</text><text class="qc-gate-params" x="768" y="154" dominant-baseline="hanging" text-anchor="middle" font-size="75%">var15</text></g><g class="qc-gate-group" data-id="kOh2LEJSM6Sbh9EN88" data-gate="measure"><rect class="qc-gate-box" x="816" y="34" width="40" height="40" stroke="black" fill="white" stroke-width="1" /><path class="gc-gate-gauge-arc" d="M 851.0613113701642 53.30434782608695 A 17.39130434782609 17.39130434782609 0 0 0 820.9386886298358 53.30434782608695" stroke="black" fill="none" stroke-width="1" /><line class="qc-gate-gauge-scale" x1="836" x2="848" y1="62" y2="42" stroke="black" stroke-width="1" /><line class="qc-gate-link-c" x1="836" x2="836" y1="74" y2="202" stroke="silver" stroke-width="1" /><line class="qc-gate-link-c" x2="836" x1="831" y1="192" y2="202" stroke="silver" stroke-width="1" /><line class="qc-gate-link-c" x2="836" x1="841" y1="192" y2="202" stroke="silver" stroke-width="1" /><text class="qc-wire-label" x="836" y="210" dominant-baseline="hanging" text-anchor="middle" font-size="75%">0</text></g><g class="qc-gate-group" data-id="dkBWzAAuA4pM2Zxaab" data-gate="measure"><rect class="qc-gate-box" x="884" y="108" width="40" height="40" stroke="black" fill="white" stroke-width="1" /><path class="gc-gate-gauge-arc" d="M 919.0613113701642 127.30434782608695 A 17.39130434782609 17.39130434782609 0 0 0 888.9386886298358 127.30434782608695" stroke="black" fill="none" stroke-width="1" /><line class="qc-gate-gauge-scale" x1="904" x2="916" y1="136" y2="116" stroke="black" stroke-width="1" /><line class="qc-gate-link-c" x1="904" x2="904" y1="148" y2="202" stroke="silver" stroke-width="1" /><line class="qc-gate-link-c" x2="904" x1="899" y1="192" y2="202" stroke="silver" stroke-width="1" /><line class="qc-gate-link-c" x2="904" x1="909" y1="192" y2="202" stroke="silver" stroke-width="1" /><text class="qc-wire-label" x="904" y="210" dominant-baseline="hanging" text-anchor="middle" font-size="75%">1</text></g><rect class="qc-cost-h" x="954" y="36" width="36" height="184" stroke="black" fill="white" stroke-width="1" rx="8" /><text class="qc-label-h" x="972" y="128" dominant-baseline="middle" text-anchor="middle" fill="black" transform="rotate(-90, 972, 128)">Cost</text><marker id="qc-arrow-head" orient="auto" markerWidth="8" markerHeight="10" refX="8" refY="5"><path d="M0,0 V10 L8,5 Z" fill="black"/></marker><line class="qc-link-h" x1="990" x2="1022" y1="128" y2="128" stroke="black" stroke-width="1" marker-end="url(#qc-arrow-head)" /><rect class="qc-optimizer-h" x="1022" y="36" width="36" height="184" stroke="black" fill="white" stroke-width="1" rx="8" /><text class="qc-label-h" x="1040" y="128" dominant-baseline="middle" text-anchor="middle" fill="black" transform="rotate(-90, 1040, 128)">Optimizer</text><line class="qc-wire-h" x1="1040" x2="1040" y1="220" y2="276" stroke="black" stroke-dasharray="4" stroke-width="1" /><line class="qc-wire-h" x1="122" x2="122" y1="276" y2="105" stroke="black" stroke-dasharray="4" stroke-width="1" /><line class="qc-wire-h" x1="122" x2="108" y1="105" y2="90" stroke="black" stroke-dasharray="4" stroke-width="1" marker-end="url(#qc-arrow-head)" /><line class="qc-wire-h" x1="122" x2="122" y1="276" y2="179" stroke="black" stroke-dasharray="4" stroke-width="1" /><line class="qc-wire-h" x1="122" x2="108" y1="179" y2="164" stroke="black" stroke-dasharray="4" stroke-width="1" marker-end="url(#qc-arrow-head)" /><line class="qc-wire-h" x1="190" x2="190" y1="276" y2="105" stroke="black" stroke-dasharray="4" stroke-width="1" /><line class="qc-wire-h" x1="190" x2="176" y1="105" y2="90" stroke="black" stroke-dasharray="4" stroke-width="1" marker-end="url(#qc-arrow-head)" /><line class="qc-wire-h" x1="190" x2="190" y1="276" y2="179" stroke="black" stroke-dasharray="4" stroke-width="1" /><line class="qc-wire-h" x1="190" x2="176" y1="179" y2="164" stroke="black" stroke-dasharray="4" stroke-width="1" marker-end="url(#qc-arrow-head)" /><line class="qc-wire-h" x1="326" x2="326" y1="276" y2="105" stroke="black" stroke-dasharray="4" stroke-width="1" /><line class="qc-wire-h" x1="326" x2="312" y1="105" y2="90" stroke="black" stroke-dasharray="4" stroke-width="1" marker-end="url(#qc-arrow-head)" /><line class="qc-wire-h" x1="326" x2="326" y1="276" y2="179" stroke="black" stroke-dasharray="4" stroke-width="1" /><line class="qc-wire-h" x1="326" x2="312" y1="179" y2="164" stroke="black" stroke-dasharray="4" stroke-width="1" marker-end="url(#qc-arrow-head)" /><line class="qc-wire-h" x1="394" x2="394" y1="276" y2="105" stroke="black" stroke-dasharray="4" stroke-width="1" /><line class="qc-wire-h" x1="394" x2="380" y1="105" y2="90" stroke="black" stroke-dasharray="4" stroke-width="1" marker-end="url(#qc-arrow-head)" /><line class="qc-wire-h" x1="394" x2="394" y1="276" y2="179" stroke="black" stroke-dasharray="4" stroke-width="1" /><line class="qc-wire-h" x1="394" x2="380" y1="179" y2="164" stroke="black" stroke-dasharray="4" stroke-width="1" marker-end="url(#qc-arrow-head)" /><line class="qc-wire-h" x1="530" x2="530" y1="276" y2="105" stroke="black" stroke-dasharray="4" stroke-width="1" /><line class="qc-wire-h" x1="530" x2="516" y1="105" y2="90" stroke="black" stroke-dasharray="4" stroke-width="1" marker-end="url(#qc-arrow-head)" /><line class="qc-wire-h" x1="530" x2="530" y1="276" y2="179" stroke="black" stroke-dasharray="4" stroke-width="1" /><line class="qc-wire-h" x1="530" x2="516" y1="179" y2="164" stroke="black" stroke-dasharray="4" stroke-width="1" marker-end="url(#qc-arrow-head)" /><line class="qc-wire-h" x1="598" x2="598" y1="276" y2="105" stroke="black" stroke-dasharray="4" stroke-width="1" /><line class="qc-wire-h" x1="598" x2="584" y1="105" y2="90" stroke="black" stroke-dasharray="4" stroke-width="1" marker-end="url(#qc-arrow-head)" /><line class="qc-wire-h" x1="598" x2="598" y1="276" y2="179" stroke="black" stroke-dasharray="4" stroke-width="1" /><line class="qc-wire-h" x1="598" x2="584" y1="179" y2="164" stroke="black" stroke-dasharray="4" stroke-width="1" marker-end="url(#qc-arrow-head)" /><line class="qc-wire-h" x1="734" x2="734" y1="276" y2="105" stroke="black" stroke-dasharray="4" stroke-width="1" /><line class="qc-wire-h" x1="734" x2="720" y1="105" y2="90" stroke="black" stroke-dasharray="4" stroke-width="1" marker-end="url(#qc-arrow-head)" /><line class="qc-wire-h" x1="734" x2="734" y1="276" y2="179" stroke="black" stroke-dasharray="4" stroke-width="1" /><line class="qc-wire-h" x1="734" x2="720" y1="179" y2="164" stroke="black" stroke-dasharray="4" stroke-width="1" marker-end="url(#qc-arrow-head)" /><line class="qc-wire-h" x1="802" x2="802" y1="276" y2="105" stroke="black" stroke-dasharray="4" stroke-width="1" /><line class="qc-wire-h" x1="802" x2="788" y1="105" y2="90" stroke="black" stroke-dasharray="4" stroke-width="1" marker-end="url(#qc-arrow-head)" /><line class="qc-wire-h" x1="802" x2="802" y1="276" y2="179" stroke="black" stroke-dasharray="4" stroke-width="1" /><line class="qc-wire-h" x1="802" x2="788" y1="179" y2="164" stroke="black" stroke-dasharray="4" stroke-width="1" marker-end="url(#qc-arrow-head)" /><line class="qc-wire-h" x1="122" x2="1040" y1="276" y2="276" stroke="black" stroke-dasharray="4" stroke-width="1" /></svg>