<?xml version="1.0"?><!DOCTYPE svg PUBLIC "-//W3C//DTD SVG 1.1//EN" "http://www.w3.org/Graphics/SVG/1.1/DTD/svg11.dtd"><svg class="qc-circuit" width="1156" height="922" version="1.1" xmlns="http://www.w3.org/2000/svg"><text class="qc-wire-init" x="0" y="128" dominant-baseline="middle" text-anchor="start">|0&#x27E9;</text><line class="qc-wire" x1="20" x2="1088" y1="128" y2="128" stroke="black" stroke-width="1" /><text class="qc-wire-label" x="20" y="112" dominant-baseline="hanging" text-anchor="start" font-size="75%">q0</text><text class="qc-wire-init" x="0" y="202" dominant-baseline="middle" text-anchor="start">|0&#x27E9;</text><line class="qc-wire" x1="20" x2="1088" y1="202" y2="202" stroke="black" stroke-width="1" /><text class="qc-wire-label" x="20" y="186" dominant-baseline="hanging" text-anchor="start" font-size="75%">q1</text><text class="qc-wire-init" x="0" y="276" dominant-baseline="middle" text-anchor="start">|0&#x27E9;</text><line class="qc-wire" x1="20" x2="1088" y1="276" y2="276" stroke="black" stroke-width="1" /><text class="qc-wire-label" x="20" y="260" dominant-baseline="hanging" text-anchor="start" font-size="75%">q2</text><text class="qc-wire-init" x="0" y="350" dominant-baseline="middle" text-anchor="start">|0&#x27E9;</text><line class="qc-wire" x1="20" x2="1088" y1="350" y2="350" stroke="black" stroke-width="1" /><text class="qc-wire-label" x="20" y="334" dominant-baseline="hanging" text-anchor="start" font-size="75%">q3</text><text class="qc-wire-init" x="0" y="424" dominant-baseline="middle" text-anchor="start">|0&#x27E9;</text><line class="qc-wire" x1="20" x2="1088" y1="424" y2="424" stroke="black" stroke-width="1" /><text class="qc-wire-label" x="20" y="408" dominant-baseline="hanging" text-anchor="start" font-size="75%">q4</text><text class="qc-wire-init" x="0" y="498" dominant-baseline="middle" text-anchor="start">|0&#x27E9;</text><line class="qc-wire" x1="20" x2="1088" y1="498" y2="498" stroke="black" stroke-width="1" /><text class="qc-wire-label" x="20" y="482" dominant-baseline="hanging" text-anchor="start" font-size="75%">q5</text><text class="qc-wire-init" x="0" y="572" dominant-baseline="middle" text-anchor="start">|0&#x27E9;</text><line class="qc-wire" x1="20" x2="1088" y1="572" y2="572" stroke="black" stroke-width="1" /><text class="qc-wire-label" x="20" y="556" dominant-baseline="hanging" text-anchor="start" font-size="75%">q6</text><text class="qc-wire-init" x="0" y="646" dominant-baseline="middle" text-anchor="start">|0&#x27E9;</text><line class="qc-wire" x1="20" x2="1088" y1="646" y2="646" stroke="black" stroke-width="1" /><text class="qc-wire-label" x="20" y="630" dominant-baseline="hanging" text-anchor="start" font-size="75%">q7</text><text class="qc-wire-init" x="0" y="720" dominant-baseline="middle" text-anchor="start">|0&#x27E9;</text><line class="qc-wire" x1="20" x2="1088" y1="720" y2="720" stroke="black" stroke-width="1" /><text class="qc-wire-label" x="20" y="704" dominant-baseline="hanging" text-anchor="start" font-size="75%">q8</text><text class="qc-wire-init" x="0" y="794" dominant-baseline="middle" text-anchor="start">|0&#x27E9;</text><line class="qc-wire" x1="20" x2="1088" y1="794" y2="794" stroke="black" stroke-width="1" /><text class="qc-wire-label" x="20" y="778" dominant-baseline="hanging" text-anchor="start" font-size="75%">q9</text><text class="qc-wire-init" x="0" y="868" dominant-baseline="middle" text-anchor="start">0</text><line class="qc-wire-c" x1="20" x2="1088" y1="868" y2="868" stroke="silver" stroke-width="1" /><text class="qc-wire-label" x="20" y="852" dominant-baseline="hanging" text-anchor="start" font-size="75%">ans</text><g class="qc-gate-group" data-id="AH7slRYnTMnFvFN6oC" data-gate="majority"><text class="qc-blackbox-label" x="156" y="94" dominant-baseline="hanging" text-anchor="middle" font-size="75%">majority</text><rect class="qc-gate-blackbox" x="134" y="106" width="44" height="414" stroke="black" fill="transparent" stroke-width="1" /><rect class="qc-gate-box" x="136" y="108" width="40" height="40" stroke="black" fill="white" stroke-width="1" /><text class="qc-gate-label" x="156" y="128" dominant-baseline="middle" text-anchor="middle" fill="black">a</text><rect class="qc-gate-box" x="136" y="478" width="40" height="40" stroke="black" fill="white" stroke-width="1" /><text class="qc-gate-label" x="156" y="498" dominant-baseline="middle" text-anchor="middle" fill="black">b</text><text class="qc-gate-params" x="156" y="524" dominant-baseline="hanging" text-anchor="middle" font-size="75%"></text><rect class="qc-gate-box" x="136" y="182" width="40" height="40" stroke="black" fill="white" stroke-width="1" /><text class="qc-gate-label" x="156" y="202" dominant-baseline="middle" text-anchor="middle" fill="black">c</text></g><g class="qc-gate-group" data-id="LFIY1UULsID4JZpwfo" data-gate="majority"><text class="qc-blackbox-label" x="224" y="168" dominant-baseline="hanging" text-anchor="middle" font-size="75%">majority</text><rect class="qc-gate-blackbox" x="202" y="180" width="44" height="414" stroke="black" fill="transparent" stroke-width="1" /><rect class="qc-gate-box" x="204" y="182" width="40" height="40" stroke="black" fill="white" stroke-width="1" /><text class="qc-gate-label" x="224" y="202" dominant-baseline="middle" text-anchor="middle" fill="black">a</text><rect class="qc-gate-box" x="204" y="552" width="40" height="40" stroke="black" fill="white" stroke-width="1" /><text class="qc-gate-label" x="224" y="572" dominant-baseline="middle" text-anchor="middle" fill="black">b</text><text class="qc-gate-params" x="224" y="598" dominant-baseline="hanging" text-anchor="middle" font-size="75%"></text><rect class="qc-gate-box" x="204" y="256" width="40" height="40" stroke="black" fill="white" stroke-width="1" /><text class="qc-gate-label" x="224" y="276" dominant-baseline="middle" text-anchor="middle" fill="black">c</text></g><g class="qc-gate-group" data-id="pq6RDxrj9WqttGPZEY" data-gate="majority"><text class="qc-blackbox-label" x="292" y="242" dominant-baseline="hanging" text-anchor="middle" font-size="75%">majority</text><rect class="qc-gate-blackbox" x="270" y="254" width="44" height="414" stroke="black" fill="transparent" stroke-width="1" /><rect class="qc-gate-box" x="272" y="256" width="40" height="40" stroke="black" fill="white" stroke-width="1" /><text class="qc-gate-label" x="292" y="276" dominant-baseline="middle" text-anchor="middle" fill="black">a</text><rect class="qc-gate-box" x="272" y="626" width="40" height="40" stroke="black" fill="white" stroke-width="1" /><text class="qc-gate-label" x="292" y="646" dominant-baseline="middle" text-anchor="middle" fill="black">b</text><text class="qc-gate-params" x="292" y="672" dominant-baseline="hanging" text-anchor="middle" font-size="75%"></text><rect class="qc-gate-box" x="272" y="330" width="40" height="40" stroke="black" fill="white" stroke-width="1" /><text class="qc-gate-label" x="292" y="350" dominant-baseline="middle" text-anchor="middle" fill="black">c</text></g><g class="qc-gate-group" data-id="C5GbWQgOsWT2x2Vx1K" data-gate="majority"><text class="qc-blackbox-label" x="360" y="316" dominant-baseline="hanging" text-anchor="middle" font-size="75%">majority</text><rect class="qc-gate-blackbox" x="338" y="328" width="44" height="414" stroke="black" fill="transparent" stroke-width="1" /><rect class="qc-gate-box" x="340" y="330" width="40" height="40" stroke="black" fill="white" stroke-width="1" /><text class="qc-gate-label" x="360" y="350" dominant-baseline="middle" text-anchor="middle" fill="black">a</text><rect class="qc-gate-box" x="340" y="700" width="40" height="40" stroke="black" fill="white" stroke-width="1" /><text class="qc-gate-label" x="360" y="720" dominant-baseline="middle" text-anchor="middle" fill="black">b</text><text class="qc-gate-params" x="360" y="746" dominant-baseline="hanging" text-anchor="middle" font-size="75%"></text><rect class="qc-gate-box" x="340" y="404" width="40" height="40" stroke="black" fill="white" stroke-width="1" /><text class="qc-gate-label" x="360" y="424" dominant-baseline="middle" text-anchor="middle" fill="black">c</text></g><g class="qc-gate-group" data-id="BXFodwb8qto4BXhpng" data-gate="cx"><line class="qc-gate-link" x1="428" x2="428" y1="424" y2="794" stroke="black" stroke-width="1" /><circle class="qc-gate-dot" cx="428" cy="424" r="5" stroke="black" fill="black" stroke-width="1" /><ellipse class="qc-gate-not" cx="428" cy="794" rx="16" ry="16" stroke="black" fill="white" stroke-width="1" /><line class="qc-gate-not-line" x1="428" x2="428" y1="778" y2="810" stroke="black" stroke-width="1" /><line class="qc-gate-not-line" x1="412" x2="444" y1="794" y2="794" stroke="black" stroke-width="1" /><text class="qc-gate-params" x="428" y="820" dominant-baseline="hanging" text-anchor="middle" font-size="75%"></text></g><g class="qc-gate-group" data-id="o4UiW7x4N0mccLTpvL" data-gate="unmaj"><text class="qc-blackbox-label" x="496" y="316" dominant-baseline="hanging" text-anchor="middle" font-size="75%">unmaj</text><rect class="qc-gate-blackbox" x="474" y="328" width="44" height="414" stroke="black" fill="transparent" stroke-width="1" /><rect class="qc-gate-box" x="476" y="330" width="40" height="40" stroke="black" fill="white" stroke-width="1" /><text class="qc-gate-label" x="496" y="350" dominant-baseline="middle" text-anchor="middle" fill="black">a</text><rect class="qc-gate-box" x="476" y="700" width="40" height="40" stroke="black" fill="white" stroke-width="1" /><text class="qc-gate-label" x="496" y="720" dominant-baseline="middle" text-anchor="middle" fill="black">b</text><text class="qc-gate-params" x="496" y="746" dominant-baseline="hanging" text-anchor="middle" font-size="75%"></text><rect class="qc-gate-box" x="476" y="404" width="40" height="40" stroke="black" fill="white" stroke-width="1" /><text class="qc-gate-label" x="496" y="424" dominant-baseline="middle" text-anchor="middle" fill="black">c</text></g><g class="qc-gate-group" data-id="WoGQMhMjjZcQEjLKpk" data-gate="unmaj"><text class="qc-blackbox-label" x="564" y="242" dominant-baseline="hanging" text-anchor="middle" font-size="75%">unmaj</text><rect class="qc-gate-blackbox" x="542" y="254" width="44" height="414" stroke="black" fill="transparent" stroke-width="1" /><rect class="qc-gate-box" x="544" y="256" width="40" height="40" stroke="black" fill="white" stroke-width="1" /><text class="qc-gate-label" x="564" y="276" dominant-baseline="middle" text-anchor="middle" fill="black">a</text><rect class="qc-gate-box" x="544" y="626" width="40" height="40" stroke="black" fill="white" stroke-width="1" /><text class="qc-gate-label" x="564" y="646" dominant-baseline="middle" text-anchor="middle" fill="black">b</text><text class="qc-gate-params" x="564" y="672" dominant-baseline="hanging" text-anchor="middle" font-size="75%"></text><rect class="qc-gate-box" x="544" y="330" width="40" height="40" stroke="black" fill="white" stroke-width="1" /><text class="qc-gate-label" x="564" y="350" dominant-baseline="middle" text-anchor="middle" fill="black">c</text></g><g class="qc-gate-group" data-id="GRDDjMXrt4XO782lKI" data-gate="unmaj"><text class="qc-blackbox-label" x="632" y="168" dominant-baseline="hanging" text-anchor="middle" font-size="75%">unmaj</text><rect class="qc-gate-blackbox" x="610" y="180" width="44" height="414" stroke="black" fill="transparent" stroke-width="1" /><rect class="qc-gate-box" x="612" y="182" width="40" height="40" stroke="black" fill="white" stroke-width="1" /><text class="qc-gate-label" x="632" y="202" dominant-baseline="middle" text-anchor="middle" fill="black">a</text><rect class="qc-gate-box" x="612" y="552" width="40" height="40" stroke="black" fill="white" stroke-width="1" /><text class="qc-gate-label" x="632" y="572" dominant-baseline="middle" text-anchor="middle" fill="black">b</text><text class="qc-gate-params" x="632" y="598" dominant-baseline="hanging" text-anchor="middle" font-size="75%"></text><rect class="qc-gate-box" x="612" y="256" width="40" height="40" stroke="black" fill="white" stroke-width="1" /><text class="qc-gate-label" x="632" y="276" dominant-baseline="middle" text-anchor="middle" fill="black">c</text></g><g class="qc-gate-group" data-id="psiFnMwJKsdR30aw5s" data-gate="unmaj"><text class="qc-blackbox-label" x="700" y="94" dominant-baseline="hanging" text-anchor="middle" font-size="75%">unmaj</text><rect class="qc-gate-blackbox" x="678" y="106" width="44" height="414" stroke="black" fill="transparent" stroke-width="1" /><rect class="qc-gate-box" x="680" y="108" width="40" height="40" stroke="black" fill="white" stroke-width="1" /><text class="qc-gate-label" x="700" y="128" dominant-baseline="middle" text-anchor="middle" fill="black">a</text><rect class="qc-gate-box" x="680" y="478" width="40" height="40" stroke="black" fill="white" stroke-width="1" /><text class="qc-gate-label" x="700" y="498" dominant-baseline="middle" text-anchor="middle" fill="black">b</text><text class="qc-gate-params" x="700" y="524" dominant-baseline="hanging" text-anchor="middle" font-size="75%"></text><rect class="qc-gate-box" x="680" y="182" width="40" height="40" stroke="black" fill="white" stroke-width="1" /><text class="qc-gate-label" x="700" y="202" dominant-baseline="middle" text-anchor="middle" fill="black">c</text></g><g class="qc-gate-group" data-id="LgG8at93n4nOSgeNGx" data-gate="measure"><rect class="qc-gate-box" x="748" y="478" width="40" height="40" stroke="black" fill="white" stroke-width="1" /><path class="gc-gate-gauge-arc" d="M 783.0613113701642 497.30434782608694 A 17.39130434782609 17.39130434782609 0 0 0 752.9386886298358 497.30434782608694" stroke="black" fill="none" stroke-width="1" /><line class="qc-gate-gauge-scale" x1="768" x2="780" y1="506" y2="486" stroke="black" stroke-width="1" /><line class="qc-gate-link-c" x1="768" x2="768" y1="518" y2="868" stroke="silver" stroke-width="1" /><line class="qc-gate-link-c" x2="768" x1="763" y1="858" y2="868" stroke="silver" stroke-width="1" /><line class="qc-gate-link-c" x2="768" x1="773" y1="858" y2="868" stroke="silver" stroke-width="1" /><text class="qc-wire-label" x="768" y="876" dominant-baseline="hanging" text-anchor="middle" font-size="75%">0</text></g><g class="qc-gate-group" data-id="KSSQsb2v4a23ESTaMh" data-gate="measure"><rect class="qc-gate-box" x="816" y="552" width="40" height="40" stroke="black" fill="white" stroke-width="1" /><path class="gc-gate-gauge-arc" d="M 851.0613113701642 571.304347826087 A 17.39130434782609 17.39130434782609 0 0 0 820.9386886298358 571.304347826087" stroke="black" fill="none" stroke-width="1" /><line class="qc-gate-gauge-scale" x1="836" x2="848" y1="580" y2="560" stroke="black" stroke-width="1" /><line class="qc-gate-link-c" x1="836" x2="836" y1="592" y2="868" stroke="silver" stroke-width="1" /><line class="qc-gate-link-c" x2="836" x1="831" y1="858" y2="868" stroke="silver" stroke-width="1" /><line class="qc-gate-link-c" x2="836" x1="841" y1="858" y2="868" stroke="silver" stroke-width="1" /><text class="qc-wire-label" x="836" y="876" dominant-baseline="hanging" text-anchor="middle" font-size="75%">1</text></g><g class="qc-gate-group" data-id="pLRvCv4qzPG55Olnwy" data-gate="measure"><rect class="qc-gate-box" x="884" y="626" width="40" height="40" stroke="black" fill="white" stroke-width="1" /><path class="gc-gate-gauge-arc" d="M 919.0613113701642 645.304347826087 A 17.39130434782609 17.39130434782609 0 0 0 888.9386886298358 645.304347826087" stroke="black" fill="none" stroke-width="1" /><line class="qc-gate-gauge-scale" x1="904" x2="916" y1="654" y2="634" stroke="black" stroke-width="1" /><line class="qc-gate-link-c" x1="904" x2="904" y1="666" y2="868" stroke="silver" stroke-width="1" /><line class="qc-gate-link-c" x2="904" x1="899" y1="858" y2="868" stroke="silver" stroke-width="1" /><line class="qc-gate-link-c" x2="904" x1="909" y1="858" y2="868" stroke="silver" stroke-width="1" /><text class="qc-wire-label" x="904" y="876" dominant-baseline="hanging" text-anchor="middle" font-size="75%">2</text></g><g class="qc-gate-group" data-id="AIaVTrq2lfaKTonloG" data-gate="measure"><rect class="qc-gate-box" x="952" y="700" width="40" height="40" stroke="black" fill="white" stroke-width="1" /><path class="gc-gate-gauge-arc" d="M 987.0613113701642 719.304347826087 A 17.39130434782609 17.39130434782609 0 0 0 956.9386886298358 719.304347826087" stroke="black" fill="none" stroke-width="1" /><line class="qc-gate-gauge-scale" x1="972" x2="984" y1="728" y2="708" stroke="black" stroke-width="1" /><line class="qc-gate-link-c" x1="972" x2="972" y1="740" y2="868" stroke="silver" stroke-width="1" /><line class="qc-gate-link-c" x2="972" x1="967" y1="858" y2="868" stroke="silver" stroke-width="1" /><line class="qc-gate-link-c" x2="972" x1="977" y1="858" y2="868" stroke="silver" stroke-width="1" /><text class="qc-wire-label" x="972" y="876" dominant-baseline="hanging" text-anchor="middle" font-size="75%">3</text></g><g class="qc-gate-group" data-id="VUNM5qFBozEQIkbRdI" data-gate="measure"><rect class="qc-gate-box" x="1020" y="774" width="40" height="40" stroke="black" fill="white" stroke-width="1" /><path class="gc-gate-gauge-arc" d="M 1055.061311370164 793.304347826087 A 17.39130434782609 17.39130434782609 0 0 0 1024.938688629836 793.304347826087" stroke="black" fill="none" stroke-width="1" /><line class="qc-gate-gauge-scale" x1="1040" x2="1052" y1="802" y2="782" stroke="black" stroke-width="1" /><line class="qc-gate-link-c" x1="1040" x2="1040" y1="814" y2="868" stroke="silver" stroke-width="1" /><line class="qc-gate-link-c" x2="1040" x1="1035" y1="858" y2="868" stroke="silver" stroke-width="1" /><line class="qc-gate-link-c" x2="1040" x1="1045" y1="858" y2="868" stroke="silver" stroke-width="1" /><text class="qc-wire-label" x="1040" y="876" dominant-baseline="hanging" text-anchor="middle" font-size="75%">4</text></g><marker id="qc-arrow-head-ed" orient="auto" markerWidth="8" markerHeight="10" refX="8" refY="5"><path d="M0,0 V10 L8,5 Z" fill="black"/></marker><rect class="qc-encoder-ed" x="70" y="110" width="36" height="776" stroke="black" fill="white" stroke-width="1" rx="8" /><text class="qc-label-ed" x="88" y="498" dominant-baseline="middle" text-anchor="middle" fill="black" transform="rotate(-90, 88, 498)">Encoder</text><line class="qc-wire-ed" x1="88" x2="88" y1="36" y2="110" stroke="black" stroke-width="1" marker-end="url(#qc-arrow-head-ed)" /><text class="qc-label-input-ed" x="88" y="26" dominant-baseline="middle" text-anchor="middle">Input</text><rect class="qc-decoder-ed" x="1090" y="110" width="36" height="776" stroke="black" fill="white" stroke-width="1" rx="8" /><text class="qc-label-ed" x="1108" y="498" dominant-baseline="middle" text-anchor="middle" fill="black" transform="rotate(-90, 1108, 498)">Decoder</text><line class="qc-wire-ed" x1="1108" x2="1108" y1="110" y2="36" stroke="black" stroke-width="1" marker-end="url(#qc-arrow-head-ed)" /><text class="qc-label-output-ed" x="1108" y="26" dominant-baseline="middle" text-anchor="middle">Output</text></svg>