<?xml version="1.0"?><!DOCTYPE svg PUBLIC "-//W3C//DTD SVG 1.1//EN" "http://www.w3.org/Graphics/SVG/1.1/DTD/svg11.dtd"><svg class="qc-circuit" width="544" height="404" version="1.1" xmlns="http://www.w3.org/2000/svg"><text class="qc-wire-init" x="0" y="54" dominant-baseline="middle" text-anchor="start">|0&#x27E9;</text><line class="qc-wire" x1="20" x2="544" y1="54" y2="54" stroke="black" stroke-width="1" /><text class="qc-wire-label" x="20" y="38" dominant-baseline="hanging" text-anchor="start" font-size="75%">q0</text><text class="qc-wire-init" x="0" y="128" dominant-baseline="middle" text-anchor="start">|0&#x27E9;</text><line class="qc-wire" x1="20" x2="544" y1="128" y2="128" stroke="black" stroke-width="1" /><text class="qc-wire-label" x="20" y="112" dominant-baseline="hanging" text-anchor="start" font-size="75%">q1</text><text class="qc-wire-init" x="0" y="202" dominant-baseline="middle" text-anchor="start">|0&#x27E9;</text><line class="qc-wire" x1="20" x2="544" y1="202" y2="202" stroke="black" stroke-width="1" /><text class="qc-wire-label" x="20" y="186" dominant-baseline="hanging" text-anchor="start" font-size="75%">q2</text><text class="qc-wire-init" x="0" y="276" dominant-baseline="middle" text-anchor="start">0</text><line class="qc-wire-c" x1="20" x2="544" y1="276" y2="276" stroke="silver" stroke-width="1" /><text class="qc-wire-label" x="20" y="260" dominant-baseline="hanging" text-anchor="start" font-size="75%">c0</text><text class="qc-wire-init" x="0" y="350" dominant-baseline="middle" text-anchor="start">0</text><line class="qc-wire-c" x1="20" x2="544" y1="350" y2="350" stroke="silver" stroke-width="1" /><text class="qc-wire-label" x="20" y="334" dominant-baseline="hanging" text-anchor="start" font-size="75%">c1</text><g class="qc-gate-group" data-id="AHr4zPYsOWFhQ1JwSr" data-gate="rx"><rect class="qc-gate-box" x="68" y="34" width="40" height="40" stroke="black" fill="white" stroke-width="1" /><text class="qc-gate-label" x="88" y="54" dominant-baseline="middle" text-anchor="middle" fill="black">RX</text><text class="qc-gate-params" x="88" y="80" dominant-baseline="hanging" text-anchor="middle" font-size="75%">0.785</text></g><g class="qc-gate-group" data-id="lxpc7KWV3TXosffIIL" data-gate="h"><rect class="qc-gate-box" x="68" y="108" width="40" height="40" stroke="black" fill="white" stroke-width="1" /><text class="qc-gate-label" x="88" y="128" dominant-baseline="middle" text-anchor="middle" fill="black">H</text><text class="qc-gate-params" x="88" y="154" dominant-baseline="hanging" text-anchor="middle" font-size="75%"></text></g><g class="qc-gate-group" data-id="BbwVzb4gORQLsBpssp" data-gate="cx"><line class="qc-gate-link" x1="156" x2="156" y1="128" y2="202" stroke="black" stroke-width="1" /><circle class="qc-gate-dot" cx="156" cy="128" r="5" stroke="black" fill="black" stroke-width="1" /><ellipse class="qc-gate-not" cx="156" cy="202" rx="16" ry="16" stroke="black" fill="white" stroke-width="1" /><line class="qc-gate-not-line" x1="156" x2="156" y1="186" y2="218" stroke="black" stroke-width="1" /><line class="qc-gate-not-line" x1="140" x2="172" y1="202" y2="202" stroke="black" stroke-width="1" /><text class="qc-gate-params" x="156" y="228" dominant-baseline="hanging" text-anchor="middle" font-size="75%"></text></g><g class="qc-gate-group" data-id="glHXCMopgJdjAZLPei" data-gate="cx"><line class="qc-gate-link" x1="224" x2="224" y1="54" y2="128" stroke="black" stroke-width="1" /><circle class="qc-gate-dot" cx="224" cy="54" r="5" stroke="black" fill="black" stroke-width="1" /><ellipse class="qc-gate-not" cx="224" cy="128" rx="16" ry="16" stroke="black" fill="white" stroke-width="1" /><line class="qc-gate-not-line" x1="224" x2="224" y1="112" y2="144" stroke="black" stroke-width="1" /><line class="qc-gate-not-line" x1="208" x2="240" y1="128" y2="128" stroke="black" stroke-width="1" /><text class="qc-gate-params" x="224" y="154" dominant-baseline="hanging" text-anchor="middle" font-size="75%"></text></g><g class="qc-gate-group" data-id="ZKNX72GrIlO4NkZJZp" data-gate="h"><rect class="qc-gate-box" x="272" y="34" width="40" height="40" stroke="black" fill="white" stroke-width="1" /><text class="qc-gate-label" x="292" y="54" dominant-baseline="middle" text-anchor="middle" fill="black">H</text><text class="qc-gate-params" x="292" y="80" dominant-baseline="hanging" text-anchor="middle" font-size="75%"></text></g><g class="qc-gate-group" data-id="lghs45Nneua8N1nlUI" data-gate="measure"><rect class="qc-gate-box" x="272" y="108" width="40" height="40" stroke="black" fill="white" stroke-width="1" /><path class="gc-gate-gauge-arc" d="M 307.06131137016416 127.30434782608695 A 17.39130434782609 17.39130434782609 0 0 0 276.93868862983584 127.30434782608695" stroke="black" fill="none" stroke-width="1" /><line class="qc-gate-gauge-scale" x1="292" x2="304" y1="136" y2="116" stroke="black" stroke-width="1" /><line class="qc-gate-link-c" x1="292" x2="292" y1="148" y2="350" stroke="silver" stroke-width="1" /><line class="qc-gate-link-c" x2="292" x1="287" y1="340" y2="350" stroke="silver" stroke-width="1" /><line class="qc-gate-link-c" x2="292" x1="297" y1="340" y2="350" stroke="silver" stroke-width="1" /><text class="qc-wire-label" x="292" y="358" dominant-baseline="hanging" text-anchor="middle" font-size="75%">0</text></g><g class="qc-gate-group" data-id="eTWZc6boxIH0obM73e" data-gate="x"><rect class="qc-gate-box" x="340" y="182" width="40" height="40" stroke="black" fill="white" stroke-width="1" /><text class="qc-gate-label" x="360" y="202" dominant-baseline="middle" text-anchor="middle" fill="black">X</text><text class="qc-gate-params" x="360" y="228" dominant-baseline="hanging" text-anchor="middle" font-size="75%"></text><line class="qc-gate-link-c" x1="360" x2="360" y1="222" y2="350" stroke="silver" stroke-width="1" /><circle class="qc-gate-dot-c" cx="360" cy="350" r="5" stroke="silver" fill="silver" stroke-width="1" /><text class="qc-wire-label" x="360" y="358" dominant-baseline="hanging" text-anchor="middle" font-size="75%">== 1</text></g><g class="qc-gate-group" data-id="yGhDHvn4BiQ5nlX9lx" data-gate="measure"><rect class="qc-gate-box" x="408" y="34" width="40" height="40" stroke="black" fill="white" stroke-width="1" /><path class="gc-gate-gauge-arc" d="M 443.06131137016416 53.30434782608695 A 17.39130434782609 17.39130434782609 0 0 0 412.93868862983584 53.30434782608695" stroke="black" fill="none" stroke-width="1" /><line class="qc-gate-gauge-scale" x1="428" x2="440" y1="62" y2="42" stroke="black" stroke-width="1" /><line class="qc-gate-link-c" x1="428" x2="428" y1="74" y2="276" stroke="silver" stroke-width="1" /><line class="qc-gate-link-c" x2="428" x1="423" y1="266" y2="276" stroke="silver" stroke-width="1" /><line class="qc-gate-link-c" x2="428" x1="433" y1="266" y2="276" stroke="silver" stroke-width="1" /><text class="qc-wire-label" x="428" y="284" dominant-baseline="hanging" text-anchor="middle" font-size="75%">0</text></g><g class="qc-gate-group" data-id="g6Pfe22eYhTACI7rN6" data-gate="z"><rect class="qc-gate-box" x="476" y="182" width="40" height="40" stroke="black" fill="white" stroke-width="1" /><text class="qc-gate-label" x="496" y="202" dominant-baseline="middle" text-anchor="middle" fill="black">Z</text><text class="qc-gate-params" x="496" y="228" dominant-baseline="hanging" text-anchor="middle" font-size="75%"></text><line class="qc-gate-link-c" x1="496" x2="496" y1="222" y2="276" stroke="silver" stroke-width="1" /><circle class="qc-gate-dot-c" cx="496" cy="276" r="5" stroke="silver" fill="silver" stroke-width="1" /><text class="qc-wire-label" x="496" y="284" dominant-baseline="hanging" text-anchor="middle" font-size="75%">== 1</text></g></svg>